<svg id="Isolation_Mode" xmlns="http://www.w3.org/2000/svg" viewBox="0 0 342.2 75.9"><style>.st0{fill:#294F96;} .st1{fill:#FFFFFF;} .st2{fill:#00AE41;} .st3{fill-rule:evenodd;clip-rule:evenodd;fill:#0055B7;} .st4{fill:#0055B7;}</style><path id="XMLID_4949_" class="st0" d="M179.9 0H0v75.9h255.7z"/><g id="XMLID_4947_"><path id="XMLID_4948_" class="st1" d="M57.1 21.3h.8v42.8h-.8z"/></g><g id="XMLID_4901_"><path id="XMLID_4944_" class="st1" d="M91.9 23.3v-1.8H94v1.8h-2.1zm0 8.1V24H94v7.4h-2.1z"/><path id="XMLID_4942_" class="st1" d="M97 24v.9c.2-.6.8-1.1 1.5-1.1 1 0 1.9.5 1.9 1.5v6.1h-2.1v-5.3c0-.3-.2-.6-.6-.6-.4 0-.6.2-.6.6v5.3H95V24h2z"/><path id="XMLID_4939_" class="st1" d="M101.4 23.3v-1.8h2.1v1.8h-2.1zm0 8.1V24h2.1v7.4h-2.1z"/><path id="XMLID_4937_" class="st1" d="M107.9 26.7v-.1c0-.3 0-.6-.1-.8-.1-.3-.3-.5-.6-.5-.5 0-.6.4-.6.9v3.1c0 .5.1.9.7.9.8 0 .6-1.2.6-1.7h2c0 .4-.1 1.4-.2 1.8-.3.9-1.1 1.3-2 1.4h-.7c-1.5 0-2.6-.6-2.6-2.3v-3c0-1.9 1-2.5 2.6-2.5 2.1 0 2.9.9 2.8 3h-1.9z"/><path id="XMLID_4934_" class="st1" d="M110.9 23.3v-1.8h2.1v1.8h-2.1zm0 8.1V24h2.1v7.4h-2.1z"/><path id="XMLID_4931_" class="st1" d="M117.4 30.7c-.5.6-1 .9-1.8.9-1.2 0-1.9-.8-1.9-2 0-1.7.9-2.2 1.8-2.5.9-.3 1.8-.4 1.8-1.2 0-.4-.2-.8-.7-.8-.8 0-.8.5-.8 1.1h-2.1c-.1-1.9 1.1-2.6 2.8-2.6 2.1 0 2.8.6 2.8 2.3v4.5c0 .3.1.6.2.8h-2l-.1-.5zm-.1-2.9c-.4.2-.8.3-1.1.5-.3.2-.5.4-.5 1 0 .5.3.8.8.8.6 0 .8-.6.8-1.1v-1.2z"/><path id="XMLID_4929_" class="st1" d="M119.7 25.5V24h.8v-2.1h2.1V24h1v1.5h-1v3.9c0 .4.2.5.5.5h.5v1.5c-.4.1-.9.1-1.3.1-1.1 0-1.8-.6-1.8-1.7v-4.3h-.8z"/><path id="XMLID_4926_" class="st1" d="M124.4 23.3v-1.8h2.1v1.8h-2.1zm0 8.1V24h2.1v7.4h-2.1z"/><path id="XMLID_4924_" class="st1" d="M129.8 28.8l.8-4.8h2l-1.6 7.4h-2.4L127 24h2.1l.7 4.8z"/><path id="XMLID_4921_" class="st1" d="M136.4 30.7c-.5.6-1 .9-1.8.9-1.2 0-1.9-.8-1.9-2 0-1.7.9-2.2 1.8-2.5.9-.3 1.8-.4 1.8-1.2 0-.4-.2-.8-.7-.8-.8 0-.8.5-.8 1.1h-2.1c-.1-1.9 1.1-2.6 2.8-2.6 2.1 0 2.8.6 2.8 2.3v4.5c0 .3.1.6.2.8h-2l-.1-.5zm-.1-2.9c-.4.2-.8.3-1.1.5-.3.2-.5.4-.5 1 0 .5.3.8.8.8.6 0 .8-.6.8-1.1v-1.2z"/><path id="XMLID_4918_" class="st1" d="M144 24v.9c.4-.7 1-1.1 1.7-1.1 1.4 0 1.8 1.4 1.8 2.5v2.6c0 1.3-.3 2.7-1.8 2.7-.4 0-1-.2-1.5-.9v3.2H142V24h2zm1.4 2.7c0-.4 0-1.2-.6-1.2s-.7.6-.7 1.3v1.7c0 .6.1 1.4.6 1.4.7 0 .6-.8.6-1.3v-1.9z"/><path id="XMLID_4911_" class="st1" d="M154.6 31.4v-9.9h2.1v9.9h-2.1z"/><path id="XMLID_4908_" class="st1" d="M157.7 26.3c0-1.9 1.1-2.5 2.7-2.5 1.9 0 2.7.9 2.7 2.5v3c-.1 1.7-1.1 2.3-2.7 2.3-1.5 0-2.7-.6-2.7-2.3v-3zm2.1 3.2c0 .4.2.6.6.6.4 0 .6-.2.6-.6v-3.3c0-.5-.2-.9-.6-.9-.5 0-.6.4-.6.9v3.3z"/><path id="XMLID_4906_" class="st1" d="M167 26.2c-.1-.5 0-1-.7-1-.4 0-.7.2-.7.6 0 .4.3.6.6.8 1.4.6 2.8 1 2.8 2.7 0 1.7-1.3 2.4-2.8 2.4-1.7 0-2.8-.7-2.7-2.5h2c0 .5.1 1.1.8 1.1.4 0 .8-.2.8-.7 0-.2-.1-.4-.3-.6-.8-.4-2-.8-2.7-1.5-.4-.4-.5-.8-.5-1.4 0-1.6 1.3-2.3 2.7-2.3 1.5 0 2.8.8 2.7 2.4h-2z"/><g id="XMLID_4788_"><path id="XMLID_4785_" class="st1" d="M153.2 31c-.3.2-.6.3-.7.3-.4.1-1 .2-1.4.2-.2 0-1.6 0-2.4-.8-.5-.6-.5-1.4-.5-2.1v-2c0-1 .1-1.5.4-2 .4-.6 1.1-.9 2.4-.9.1 0 2-.1 2.6 1.1.2.3.2.7.2 1.4v1.9h-3.4v1.2c0 .2 0 .7.6.7.1 0 .5 0 .7-.4v-.7h2.1c.1.8.1 1.6-.6 2.1zm-1.5-5c0-.1 0-.8-.6-.8-.7 0-.7.6-.7.8v.8h1.3V26z"/></g></g><g id="XMLID_4879_"><path id="XMLID_4894_" class="st1" d="M68.2 54.4v3.4c0 1 .4 1.4 1.3 1.4s1.3-.2 1.2-1V36.4H77v18.8c0 1.9.1 4-.8 5.8-1.3 2.5-3.7 3.1-6.4 3.1-3 0-5.6-1.4-6.4-4.5-.3-1.2-.3-2.4-.3-3.6v-1.5h5.1z"/><path id="XMLID_4890_" class="st1" d="M96.3 54.7c0 6.1-2.1 9.2-8.5 9.2s-8.6-3.2-8.6-9.2v-11c0-5.2 3.1-8.1 8.6-8.1s8.5 2.9 8.5 8.1v11zM90 44.2c0-1.7-.1-3.6-2.2-3.6-2 0-2.3 2-2.3 3.6v11.1c0 1.5.3 3.8 2.3 3.8 2 0 2.2-2.3 2.2-3.8V44.2z"/><path id="XMLID_4888_" class="st1" d="M102.9 63.3l-5.9-27h6.3l3.2 18.9h.1l3.2-18.9h6.3l-5.9 27h-7.3z"/><path id="XMLID_4886_" class="st1" d="M117.2 63.3v-27h14.5v5.4h-8.2v5h7.9v5.4h-7.9v5.8h8.6v5.4h-14.9z"/><path id="XMLID_4884_" class="st1" d="M139.5 48.2l.5 15.1h-6v-27h6.5l4.9 15.1h.1l-.6-15.1h6v27h-6.5l-4.9-15.1z"/><path id="XMLID_4880_" class="st1" d="M158.5 54.3v1.9c0 1.5.5 2.9 2.5 2.9 1.5 0 2.1-1.3 2.1-2.7 0-2.3-1.9-3.1-3.5-4.1-1.9-1.1-3.6-2.2-4.8-3.5-1.2-1.4-1.8-3-1.8-5.4 0-5.1 3.1-7.7 7.9-7.7 5.5 0 8.3 3.7 8 8.7h-5.8c-.1-1.6 0-3.7-2.1-3.9-1.3-.1-2 .6-2.2 1.8-.2 1.6.6 2.4 1.9 3.3 2.4 1.5 4.4 2.4 5.9 3.8s2.3 3.2 2.3 6.4c0 5.2-2.9 8.1-8.1 8.1-5.8 0-8.2-3.2-8.2-6.8v-2.9h5.9z"/></g><path id="XMLID_4847_" class="st1" d="M15.1 53.3c-.1.1-.2.3-.2.5v6.6s-3.6-6.4-3.8-6.7c-.1-.2-.3-.4-.4-.5-.2-.1-.4-.2-.7-.2H8.7c-.3 0-.4.1-.6.2 0 .2-.1.3-.1.6v9.3c0 .2.1.4.2.5.1.1.3.2.6.2h.7c.3 0 .5-.1.6-.2.1-.1.2-.3.2-.5v-6.8s3.7 6.6 3.9 6.9c.2.3.6.6 1.1.6h1.2c.3 0 .5-.1.6-.2.1-.1.2-.3.2-.5v-8.4h15.2c.2 0 .3 0 .4-.1.1-.1.1-.2.1-.4v-.6c0-.2 0-.3-.1-.4-.1-.1-.2-.1-.4-.1H15.7c-.3-.1-.5 0-.6.2m26.8-22c-2.7-4-5.1-5.4-5.7-6-.7-.7-1.3-1.5-1.6-1.9-.8-.9-1.8-1.9-3.5-1.9-1.6 0-2.7 1.1-3 2-.1.3-.2.6-.3.7-.2.3-.9 1.5-1.2 2h1.3l-.7 1.2c.8-.2 1.3-.3 2-.3.6 0 1.1.2 1.3.6.4.8.4 3 1 4.8.6 1.6 2 3.2 3.7 4.4h.1c.1 0 .1-.1.1-.1s0-.1-.1-.1c-1.4-1.4-2.5-2.9-3.1-4.5-.6-1.6-.5-3.9-1-4.9-.3-.7-1.1-.8-1.7-.8-.5 0-1 .1-1.3.2l.6-1h-1c.2-.4.4-.7.5-.9.1-.2.1-.4.2-.7.4-1 1.2-1.6 2.3-1.6 1.4 0 2.2.9 3 1.8.4.4 1 1.3 1.6 1.9.5.4 1.4.9 2.8 2.4.8.8 1.7 1.9 2.7 3.3 3.5 5.1 5.8 9.7 7.1 13.2-3.7-2.5-6.9-4.9-9.4-7.8-1.8-2.1-3.4-4.5-4.8-7.5l-.3-.6c0-.1-.1-.1-.1-.1-.1 0-.1.1-.1.1 0 .1 0 .3.1.6.7 3.2 2.8 6 4.9 8.4 2.2 2.3 4.6 4.4 6.6 5.8l1.6 4.5c0 .1.1.2.1.3 0 .1 0 .1-.1.2 0 0-.1.1-.2.1h-.5c-.2 0-.3 0-.4-.1l-.2-.2c-.1-.4-1-2.8-1.1-3.3 0-.1-.1-.1-.1-.1-.1 0-.1.1-.1.1 0 .1 0 .1.1.3.2 1.1.5 2.3.6 2.7 0 .2.1.4.1.6 0 .1 0 .2-.1.3l-.5.5c-.1.1-.2.1-.3.1-.1 0-.2-.1-.3-.3-.5-2.7-1.3-5.9-1.5-6.8-.1-.2-.1-.3-.2-.3s-.1.1-.1.2v.2c.1.9.7 4.2 1.2 7.3.1.5.3.8.7.8.2 0 .4-.1.6-.3l.7-.7c.3-.2.4-.3.9-.3h1.1c.3 0 .4-.1.5-.2.1-.1.2-.3.2-.5s-.1-.4-.1-.6c-.3-.7-1.2-3.2-1.4-3.9.9.7 2.2 1.6 2.8 1.6.2 0 .3-.1.3-.4 0-1.5-2.2-7-7.3-14.5M21.7 55.8c-2.5 0-3.9 2-3.9 4 0 2.2 1.5 4.2 3.9 4.2 1.2 0 2.4-.5 3.1-1.3.3-.3.5-.8.5-1.1 0-.1 0-.2-.1-.3-.1-.1-.1-.1-.3-.1h-1.2c-.2 0-.4.1-.5.3-.3.5-.8.8-1.6.8-1.1 0-1.8-.8-1.8-1.7h5.1c.2 0 .4-.1.5-.2.1-.1.2-.3.2-.6 0-1-.3-1.9-.9-2.7-.6-.8-1.6-1.3-3-1.3m7.8 0c-2 0-3.3.9-3.3 2.5 0 .5.2 1 .5 1.3.4.4.9.7 1.7.9l1.7.4c.5.1.9.3.9.7 0 .6-.7.8-1.4.8-.3 0-.7-.1-1-.2-.2-.1-.4-.2-.5-.4-.1-.2-.1-.3-.3-.4-.1-.1-.2-.1-.4-.1h-.9c-.2 0-.3.1-.4.1-.1 0-.1.2-.1.3 0 .3.1.7.3 1 .6.7 1.7 1.3 3.2 1.3 1.5 0 3.5-.6 3.5-2.5 0-.5-.1-.9-.4-1.3-.3-.4-.8-.7-1.7-1l-1.6-.4c-.7-.2-1-.3-1-.7 0-.4.4-.7 1.2-.7.5 0 .9.1 1.2.4.2.3.2.4.4.5.1.1.2.1.5.1h.8c.1 0 .2 0 .3-.1.1-.1.1-.2.1-.3 0-.4-.2-.9-.7-1.2-.6-.7-1.5-1-2.6-1M17 22.8c.2-.3.5-.6.9-.6.5 0 1 .4 1 1 0 .3-.2.6-.4.8.1.2.1.4.1.5 0 .6-.4 1-1 1.3-.1.4-.2.7-.5 1-.4.4-.9.4-.9.6 0 .1.1.2.2.2.8 0 1.6-.4 1.7-1.2.8-.3 1.2-1 1.2-1.7 0-.2 0-.3-.1-.4.2-.2.5-.6.5-1.1 0-.5-.2-.9-.5-1.2-.3-.3-.7-.5-1.2-.5-.7 0-1.2.4-1.5.8-.8 0-1.8.9-1.8 2.1h-.1c-.1-.4-.5-.7-.9-.7-.3-.9-1-1.7-2.1-1.7h-.4c-.3-.3-.7-.5-1.2-.5-1 0-1.8.8-1.8 1.8 0 .6.3 1.1.8 1.4v.1c0 .8.9 2 2.2 2 0 .2.3.5.5.5v.1h-.1c-1.8 0-2.5.9-2.5 1.4-.8.3-1.1.9-1.1 1.4 0 1.1.8 1.9 1.8 1.9.3 0 .7-.1 1-.3.2.1.4.1.7.1.5 0 1.1-.2 1.5-.7h.2c.6 0 1.2-.4 1.5-1 .1-.1.1-.2.1-.3 0-.1 0-.1-.1-.1s-.1.1-.3.3c-.4.4-1 .5-1.7.5-.3.5-.7.7-1.1.7-.3 0-.6-.1-.8-.3-.2.2-.5.3-.7.3-.6 0-1-.4-1-1 0-.4.3-.8.6-.9.1-.7.8-1.2 1.8-1.2h.4c.1-.2.5-.5 1-.5.1 0 .2 0 .2-.1.1 0 .1-.1.1-.2s0-.1-.1-.1-.1 0-.2-.1c-.5-.1-1-.4-1.3-1.1-1.1 0-1.9-.9-1.9-1.9v-.1c-.4-.1-.6-.5-.6-.9 0-.5.4-1 1-1 .3 0 .6.2.8.4.2 0 .3-.1.5-.1.8 0 1.7.5 1.9 1.5 1 .1 1.3 1 1.4 1.4 0 .2.1.3.2.3s.2-.1.2-.3c.1-.4.2-.7.5-.9-.4-.8.3-1.7 1.4-1.7m17 33.3h-.4c-.2 0-.3 0-.4.1-.1.1-.1.2-.1.4v.5c0 .2 0 .3.1.4.1.1.2.1.4.1h.4v3.6c0 .9.3 1.5.7 2 .4.4 1 .7 2 .7h.6c.2 0 .3 0 .4-.1.1-.1.2-.2.2-.4v-.6c0-.2-.1-.3-.2-.4-.1-.1-.2-.1-.4-.1h-.1c-.4 0-.7-.1-.8-.3-.2-.2-.3-.5-.3-.9v-3.5h1.3c.2 0 .3 0 .4-.1.1-.1.1-.2.1-.4v-.5c0-.2 0-.3-.1-.4-.1-.1-.2-.1-.4-.1h-1.3v-2.4c0-.2-.1-.3-.1-.4-.1-.1-.3-.2-.5-.2h-.8c-.2 0-.4.1-.5.2-.1.1-.1.2-.1.4v2.4zm4.5 7.1c0 .2.1.3.1.4.1.1.3.2.5.2h.9c.2 0 .4-.1.5-.2.1-.1.1-.2.1-.4v-9.5c0-.2-.1-.3-.1-.4-.2-.2-.3-.3-.5-.3h-.9c-.2 0-.4.1-.5.2-.1.1-.1.2-.1.4v9.6zM19.1 28.5c-.3.5-.6.7-1.4 1.6-1 1.2-1.6 2.2-2.5 4.4h1l.1-.2c.5-1.1 1.2-2.5 2.1-3.6l.3-.4c1-1.1 1.6-1.8 2-3.4.1-.6.2-1 .6-1.4.3-.3.8-.5 1.2-.5.4 0 .6.1 1 .3.4.2.5.2.9.2h.3l-.5.7.7.5c-.9.3-1.3 1.1-1.5 1.5v.2c0 .1 0 .1.1.1s.2-.1.3-.2c.4-.5.8-.9 2.3-1.3L25 26l.8-1.2H25c-.5 0-.8 0-1.2-.2-.6-.3-.9-.4-1.4-.4-.6 0-1.2.2-1.7.7-.5.5-.7 1.2-.9 1.9-.1.5-.3 1.2-.7 1.7m1.6 5c-.4.6-1 1.3-1.4 2.1.1.1.6.3.8.4.5-.8 1.2-1.7 1.7-2.4.4-.6.6-.9.6-1.8v-.4c0-.4.2-.9.6-1.3.3-.3.8-.5 1.2-.5.4 0 .7.1 1.1.1.3 0 .5-.1.6-.1l.1-.1-.3.8.8.3c-.5.3-1.6 1.7-1.6 3.2 0 .6.1 1.1.2 1.6 0 .1 0 .1.1.1s.1 0 .1-.1v-.2c0-.5.1-1.3.3-1.9.3-1.2 1.2-2.3 2.1-2.8l-1.3-.5.5-1.3-.6.1c-.3.1-.6.2-.9.2-.2 0-.4 0-.7-.1-.2-.1-.4-.1-.8-.1-.6 0-1.2.2-1.6.6-.8.7-.8 1.5-.9 2.2 0 1-.2 1.2-.7 1.9m18.7.4c-.1-.1-.1-.1-.2-.1s-.1.1-.1.1c0 .1.1.2.3.5.6.9 1.2 1.9 2.1 2.8.9 1 2 1.9 3.1 2.7l.4.2c.1 0 .1.1.1.1.1 0 .1-.1.1-.1s0-.1-.1-.1c-1.1-1-2.2-2.1-3.3-3.3-.8-.9-1.7-1.8-2.4-2.8M19.9 59c.1-.9.8-1.6 1.8-1.6s1.7.7 1.8 1.6h-3.6zM16 30.6c.1-.2.4-.6.6-.8-.6-1.1-1.5-2.2-1.9-2.6l-.3.3c.3.6 1 1.7 1.6 3.1m-5.3-6.5l-.1-.1c0-.1 0-.1.1-.1h.1c.5.2 1 .5 1.4.8.3.3.7.6 1 1l-.3.3c-.4-.4-1.6-1.4-2.2-1.9m5.1 2.4l-.4-.2c.3-.6.6-1.2.9-1.6l.8-.8c.1-.1.1-.1.2-.1s.1.1.1.1v.1c-.4.8-1.3 2.1-1.6 2.5m-4.9 3.4c-.1 0-.1.1-.2.1s-.1-.1-.1-.1c0-.1 0-.1.1-.1.9-.7 1.7-1 2.8-1.2l.1.4-2.7.9zm18.6-5.6c0-.3.1-.7.6-.7.2 0 .3 0 .4.1.2.1.3.2.3.3 0 .1-.1.3-.3.4-.2.2-.5.3-.7.3-.2 0-.3-.2-.3-.4m-7.3 2.1c0-.3.2-.7.6-.7.2 0 .3.1.5.2.1.1.1.2.1.2 0 .2-.2.3-.4.5-.2.1-.3.1-.5.1s-.3-.1-.3-.3m1.7 4.4v-.2c.1-.2.2-.4.5-.4.1 0 .3 0 .4.1.1.1.2.2.2.3 0 .3-.5.7-.8.7-.2 0-.3-.2-.3-.5m24.6 23.9c.2 0 .3 0 .4-.1.1-.1.1-.2.1-.4v-.7c0-.3-.1-.4-.1-.5-.1-.1-.2-.1-.4-.1h-.4l-5.8.6c-.2 0-.2.1-.3.1-.1.1-.1.2-.1.3v.4c0 .1 0 .2.1.3.1.1.2.1.3.1h6.2zm-3.2 1.1c-2.5 0-3.9 2-3.9 4 0 2.2 1.5 4.2 3.9 4.2 1.2 0 2.4-.5 3.1-1.3.3-.3.5-.8.5-1.1 0-.1 0-.2-.1-.3-.1-.1-.1-.1-.3-.1h-1.2c-.2 0-.4.1-.5.3-.3.5-.8.8-1.6.8-1.1 0-1.8-.8-1.8-1.7h5.1c.2 0 .4-.1.5-.2.1-.1.2-.3.2-.6 0-1-.3-1.9-.9-2.7-.7-.8-1.7-1.3-3-1.3M43.4 59c.1-.9.8-1.6 1.8-1.6s1.7.7 1.8 1.6h-3.6zM21 40c-1 0-1.4-.5-1.4-1.1 0-1 1.8-2 3.4-2.7l.4.5c-1 .4-3 1.3-3 2 0 .3.2.5.8.5 1.1 0 2.2-.5 3.3-1 .1 0 .2-.1.3-.1.1 0 .2 0 .3.2l.2.2C24 39.3 22.4 40 21 40m2.7.3c-1 .5-2 .9-2.8.9-1 0-1.9-.4-2.6-1.5-.3-.5-.5-1-.8-1.6-.3-.6-.7-.9-1.4-.9-.6 0-1.2.2-1.8.5v.1c.1.2.1.4.3.4.1 0 .2 0 .2-.1.3-.1.6-.2 1-.2.5 0 .8.3 1.2 1.1l.1.3c-.4.1-1.3.2-1.9.2h-.3l.1.3c0 .1.1.2.2.3.1.1.3.1.6.1.8 0 1.4-.1 1.8-.2.9 1.3 2.1 1.8 3.3 1.8 1 0 2-.4 3-.9l-.2-.6zm1 .3l-.2-.7c1.5-.8 2.9-1.5 5-1.7 0 .8 0 1.9.6 1.9s1.8-1.5 3.2-3.3c.1.1.3.3.5.4l-.4.5C32 39.5 30.8 41 29.9 41c-.9 0-1.2-1.1-1.3-1.9-1.2.2-2.6.7-3.9 1.5M43.9 26c-.6 0-.7-.3-.7-.8 0-.9.6-2.2.9-3h-.9c-.4 1-2.2 3.8-3.2 5l.6.6c.5-.6 1.1-1.6 1.7-2.5h.1v.2c0 .8.4 1.4 1.5 1.4.6 0 1.6-.3 2.6-.6.8-.3 1.5-.5 1.9-.6v-.9c-.4.1-1.2.4-2.1.7-1 .3-1.9.5-2.4.5m1.9 2.7c.9-.4 2.4-1 3.3-1.3v-.9c-1.8.7-5 2-7.1 3.2.1.1.4.6.5.7.9-.4 1.7-.6 2.5-.6 1 0 1.9 0 3.3-.3v-.7c-.8.1-1.6.3-2.2.3-.3 0-.4 0-.4-.2 0-.1 0-.2.1-.2m-18.9 4.7h3.7l-.3-.7h-3.1l-.3.7zm-13 3.3c.4 0 .7-.1 1-.3.3-.1.6-.2 1-.2.9 0 2.1.4 3.1.9h.2c.2 0 .3-.1.4-.2l.1-.2c-1.1-.6-2.9-1.3-3.8-1.3-.4 0-.7.1-1 .2-.3.1-.6.3-.9.3-.7 0-2.6-.7-2.6-1.4 0-.8 3-1.1 3.3-1.1l.3-.7c-2.2 0-4.8.8-4.8 1.8 0 .3.2.4.2.7 0 .4-.2.6-.2 1 0 .3.2.6.3.9.2.3.4.5.4.8 0 .2-.1.4-.1.9 0 1 .6 1.6 1.6 2.7l.2.2c-.9.3-2.6 1.1-3 1.2-1.3.6-1.6 1.3-1.6 2.3v1.3h.3c.5 0 .6-.3.6-.6v-.7c0-.6 0-1.1 1-1.6.4-.2 2.3-1 3.7-1.6.4-.2.8-.3 1.2-.3.5 0 1 .2 1.7.6.6.3 1.2.8 1.7 1.4l.6-.5c-.5-.6-1.3-1.2-2-1.6-.7-.4-1.4-.7-1.9-.7-.2 0-.4 0-.6.1-.2.1-.4.1-.6.1-.3 0-.5-.1-.8-.4-.1-.1-.9-1-1.1-1.3-.1-.1-.2-.4-.2-.7 0-.1 0-.3.1-.4.7.5 1.5.8 2.5 1l-.1-.7c-1.5-.4-3-1.7-3-2.5 0-.2 0-.3.1-.5.6.6 2 1.1 2.7 1.1m10.4.2c.9-.6 1.9-.7 2.6-.7.5 0 1 .1 1.6.1.5.1.9.1 1.4.1 1 0 2-.4 2.4-.6.1.2.3.4.5.5-.2.1-1.5.9-2.9.9-.6 0-1.2-.1-1.7-.1-.4-.1-.9-.1-1.3-.1-.5 0-1.5.1-2.1.4l-.5-.5zm13.5 2.6c-1.1 2.3-2.7 4-4.4 4.9-.8.5-1.5.8-3.1.8h-3.4c-1.2 0-2 .2-2.6.3-.6.2-1 .3-1.7.3-1 0-1.8-.5-2.3-.9l.8-.6-.4-.5c-.2.2-3.1 2.3-3.7 2.7v-.4c0-1.6-.7-2-1.9-2.4l-.7.3c1.5.5 1.9.9 1.9 2.1 0 .9-.3 1.3-.8 1.6-.5.3-1.1.4-1.6.4-.2 0-.3 0-.4.1-.1.1-.1.2-.1.4v.3h.2c1 0 1.9-.2 2.9-.9l3.2-2.5c.5.5 1.6 1.2 3 1.2.8 0 1.3-.2 2-.4.6-.1 1.1-.3 2.3-.3h3.4c1.7 0 2.6-.4 3.5-.9 2-1.1 3.7-3 4.7-5.2-.4-.1-.6-.3-.8-.4m-5.5 2.7c.9-1.4 1.7-2.7 3.6-3.7-.2-.1-.5-.3-.6-.4-.7.3-1.5 1-2.1 1.6-1.5 1.5-1.3 2.4-2.9 3-.4.1-.9.3-1.5.4-.4-1.1-1.2-2.2-2.2-2.2-.7 0-1.4.3-2.3.7-1 .4-2 1-2.3 1.2l.4.5c.3-.2 1.2-.6 2.1-1 .8-.3 1.5-.6 1.9-.6.7 0 1.2.8 1.5 1.5-1 .2-2.6.3-3.1.3-.2 0-.3 0-.4.1-.1.1-.1.2-.2.3l-.1.2h.5c2.7 0 5.3-.4 6.9-1.4.5.3.7.3 1 .3.9 0 1.9-.5 2.5-1 .2-.2.3-.3.3-.5V41c-.9.7-1.6 1.2-2.5 1.2h-.5"/><g id="XMLID_4116_"><g id="XMLID_4117_"><path id="XMLID_4114_" class="st2" d="M261.2 52.8l-.2-.7c15-5 44.4-12.6 81.3-7.6l-.1.7c-36.8-4.9-66.1 2.7-81 7.6z"/><g id="XMLID_4915_"><path id="XMLID_4113_" class="st3" d="M298.2 13.7l.6 2.5 2.5.6-2.4.5-.7 2.4-.7-2.3-2.3-.6 2.4-.6z"/><path id="XMLID_4112_" class="st3" d="M290.2 21.7l.6 2.6 2.6.5-2.5.6-.7 2.4-.7-2.4-2.2-.6 2.3-.5z"/><path id="XMLID_4111_" class="st3" d="M307.8 18.9l.6 2.5 2.6.6-2.5.5-.7 2.4-.7-2.3-2.2-.6 2.3-.6z"/><path id="XMLID_4110_" class="st3" d="M301.6 36.1l.6 2.5 2.5.6-2.5.5-.6 2.4-.7-2.3-2.3-.6 2.3-.6z"/></g><g id="XMLID_4118_"><g id="XMLID_4122_"><path id="XMLID_4913_" class="st4" d="M271.1 55.9h1.2v9H271v-7l-2.8 3.5h-.2l-2.8-3.5v7H264v-9h1.2l3 3.7 2.9-3.7z"/><path id="XMLID_4882_" class="st4" d="M275.4 55.9h5.1V57h-3.8v2.7h3.7v1.2h-3.7v2.8h3.9v1.1h-5.2v-8.9z"/><path id="XMLID_4843_" class="st4" d="M283.1 64.9v-9h2.3c.9 0 1.6.2 2.2.7.5.5.8 1.1.8 1.8 0 .5-.1 1-.4 1.4-.3.4-.6.7-1.1.9.3.2.6.4.8.8.3.3.7.9 1.2 1.7.3.5.6.9.8 1.2l.5.6h-1.5l-.4-.6s0-.1-.1-.1l-.3-.4-.4-.7-.4-.7c-.3-.4-.5-.7-.7-.9-.2-.2-.4-.4-.6-.5-.2-.1-.5-.1-.9-.1h-.3v3.9h-1.5zm1.7-7.9h-.4v2.8h.5c.7 0 1.1-.1 1.3-.2.2-.1.4-.3.6-.5.1-.2.2-.5.2-.8 0-.3-.1-.5-.2-.8-.2-.2-.4-.4-.6-.5h-1.4z"/><path id="XMLID_4841_" class="st4" d="M299.9 62.8v1.4c-.9.5-2 .8-3.3.8-1 0-1.9-.2-2.6-.6-.7-.4-1.3-1-1.7-1.7-.4-.7-.6-1.5-.6-2.3 0-1.3.5-2.4 1.4-3.3.9-.9 2.1-1.3 3.5-1.3.9 0 2 .2 3.1.7v1.4c-1.1-.6-2.1-.9-3.1-.9s-1.9.3-2.6 1c-.7.6-1 1.5-1 2.4 0 1 .3 1.8 1 2.4.7.6 1.5 1 2.6 1 1.2 0 2.3-.3 3.3-1z"/><path id="XMLID_4127_" class="st4" d="M307 55.8c1.4 0 2.5.4 3.5 1.3.9.9 1.4 2 1.4 3.3 0 1.3-.5 2.4-1.4 3.3-.9.9-2.1 1.3-3.5 1.3s-2.5-.4-3.4-1.3c-.9-.9-1.4-2-1.4-3.3 0-1.3.5-2.5 1.4-3.3.9-.9 2.1-1.3 3.4-1.3zm.1 1.2c-1 0-1.9.3-2.5 1-.7.6-1 1.5-1 2.5s.3 1.8 1 2.4c.7.6 1.5 1 2.5 1s1.8-.3 2.5-1 1-1.5 1-2.5-.3-1.8-1-2.4c-.7-.7-1.5-1-2.5-1z"/><path id="XMLID_4125_" class="st4" d="M316.8 61.1l-1-.6c-.6-.4-1.1-.7-1.3-1.1-.3-.4-.4-.8-.4-1.3 0-.7.2-1.3.7-1.7.5-.4 1.1-.7 1.9-.7.8 0 1.4.2 2.1.6v1.5c-.6-.6-1.3-.9-2.1-.9-.4 0-.8.1-1 .3-.3.2-.4.4-.4.7 0 .3.1.5.3.8.2.2.5.5 1 .7l1 .6c1.1.7 1.6 1.5 1.6 2.5 0 .7-.2 1.3-.7 1.8-.5.5-1.1.7-1.9.7-.9 0-1.7-.3-2.4-.8v-1.6c.7.9 1.5 1.3 2.4 1.3.4 0 .7-.1 1-.3.3-.2.4-.5.4-.8 0-.7-.4-1.2-1.2-1.7z"/><path id="XMLID_4123_" class="st4" d="M328 55.9h1.3V61c0 .7 0 1.2-.2 1.6-.1.4-.2.6-.4.9-.1.2-.3.4-.5.6-.7.6-1.6.9-2.8.9-1.2 0-2.1-.3-2.8-.9-.2-.2-.4-.4-.5-.6-.1-.2-.3-.5-.4-.9-.1-.3-.1-.9-.1-1.6v-5.1h1.3V61c0 .8.1 1.4.3 1.8.2.3.5.6.9.8.4.2.9.3 1.4.3.8 0 1.4-.2 1.9-.6.3-.2.4-.5.5-.8.1-.3.2-.8.2-1.5v-5.1z"/></g><g id="XMLID_4119_"><path id="XMLID_4120_" class="st4" d="M332.2 55.9h1.3v7.9h4.1V65h-5.4v-9.1z"/></g></g></g></g></svg>